<svg xmlns="http://www.w3.org/2000/svg" viewBox="0 0 64 64" id="game-controller">
  <g>
    <path fill="#231f20" d="M40.46 10.24 42 9h7.06a5.28 5.28 0 0 1 5.16 4.1m-44.45.04A5.28 5.28 0 0 1 14.93 9H22l1.55 1.2"></path>
    <path fill="#2f559a" d="M54 55a4.34 4.34 0 0 1-4.31-3.84l-2.12-9.44a4.1 4.1 0 0 0-4-3.2h-23.1a4 4 0 0 0-2.2.65 4.07 4.07 0 0 0-1.76 2.38v.17l-2.12 9.44A4.34 4.34 0 0 1 10 55a7 7 0 0 1-2.93-.64 7 7 0 0 1-4.06-7.23l2.57-21.98-.07-.21.49-5.13a9.22 9.22 0 0 1 9.18-8.41l7.42-1a68.59 68.59 0 0 1 17-.23c.63.06 1.25.14 1.88.23l7.42 1a9.23 9.23 0 0 1 9.1 8.41l.45 5.13-.07.21L61 47.09A7 7 0 0 1 54 55Z"></path>
    <path fill="#5977ae" d="m7.11 54.32 9.4-12.81v.17l-2.12 9.44A4.34 4.34 0 0 1 10 55a7 7 0 0 1-2.89-.68zm47.2-41.13L35.74 38.48H20.47a4 4 0 0 0-2.2.65l21.29-29c.63.06 1.25.14 1.88.23l7.42 1a9.15 9.15 0 0 1 5.45 1.83z"></path>
    <path d="M54 56a5.33 5.33 0 0 1-5.3-4.67l-2.15-9.43a3.07 3.07 0 0 0-3-2.42H20.47a3.07 3.07 0 0 0-3 2.42l-2.11 9.39A5.33 5.33 0 0 1 10 56a8 8 0 0 1-8-9l2.5-21.73a1.07 1.07 0 0 1 0-.4l.5-5.14a10.28 10.28 0 0 1 10.07-9.33l7.36-1a68.94 68.94 0 0 1 19.14 0l7.36 1A10.28 10.28 0 0 1 59 19.73l.45 5.12a1.07 1.07 0 0 1-.05.4L61.94 47a8 8 0 0 1-8 9ZM20.47 37.48h23.06a5.07 5.07 0 0 1 5 4l2.11 9.44a.43.43 0 0 1 0 .11A3.33 3.33 0 0 0 54 54a6.05 6.05 0 0 0 6-6.75l-2.57-21.99a.9.9 0 0 1 0-.43L57 19.91a8.27 8.27 0 0 0-8.19-7.5h-.14l-7.42-1a67.37 67.37 0 0 0-18.6 0l-7.42 1h-.14A8.27 8.27 0 0 0 7 19.9l-.43 4.92a.9.9 0 0 1 0 .43L4 47.21A6.05 6.05 0 0 0 10 54a3.33 3.33 0 0 0 3.32-3 .43.43 0 0 1 0-.11l2.11-9.44a5.07 5.07 0 0 1 5.04-3.97Z"></path>
    <path d="M54.23 14.14a1 1 0 0 1-1-.78A4.27 4.27 0 0 0 49.07 10h-6.72l-1.27 1a1 1 0 1 1-1.23-1.58l1.55-1.2A1 1 0 0 1 42 8h7.06a6.26 6.26 0 0 1 6.13 4.88 1 1 0 0 1-.75 1.19.83.83 0 0 1-.21.07zm-44.46 0a.83.83 0 0 1-.22 0 1 1 0 0 1-.75-1.19A6.26 6.26 0 0 1 14.93 8H22a1 1 0 0 1 .61.21l1.55 1.2A1 1 0 1 1 22.92 11l-1.27-1h-6.72a4.27 4.27 0 0 0-4.18 3.32 1 1 0 0 1-.98.82z"></path>
    <circle cx="40.59" cy="31.97" r="3.85" fill="#231f20"></circle>
    <circle cx="23.52" cy="31.97" r="3.85" fill="#231f20"></circle>
    <path d="M40.59 36.82A4.86 4.86 0 1 1 45.44 32a4.86 4.86 0 0 1-4.85 4.82Zm0-7.71A2.86 2.86 0 1 0 43.44 32a2.86 2.86 0 0 0-2.85-2.89Z"></path>
    <path fill="#231f20" d="M21.12 21.26v2.22a.42.42 0 0 1-.42.42h-3.55v3.67a.42.42 0 0 1-.41.43h-2.15a.42.42 0 0 1-.42-.43V23.9h-3.55a.41.41 0 0 1-.41-.42v-2.22a.42.42 0 0 1 .41-.43h3.55v-3.67a.42.42 0 0 1 .42-.43h2.15a.42.42 0 0 1 .41.43v3.67h3.55a.42.42 0 0 1 .42.43Z"></path>
    <path d="M16.74 29h-2.15a1.43 1.43 0 0 1-1.42-1.43V24.9h-2.55a1.42 1.42 0 0 1-1.41-1.42v-2.22a1.42 1.42 0 0 1 1.41-1.43h2.55v-2.67a1.43 1.43 0 0 1 1.42-1.43h2.15a1.42 1.42 0 0 1 1.41 1.43v2.67h2.55a1.43 1.43 0 0 1 1.42 1.43v2.22a1.43 1.43 0 0 1-1.42 1.42h-2.55v2.67A1.42 1.42 0 0 1 16.74 29zm-1.57-2h1v-3.1a1 1 0 0 1 1-1h3v-1.07h-3a1 1 0 0 1-1-1v-3.1h-1v3.1a1 1 0 0 1-1 1h-3v1.07h3a1 1 0 0 1 1 1zm8.35 9.82A4.86 4.86 0 1 1 28.37 32a4.86 4.86 0 0 1-4.85 4.82zm0-7.71A2.86 2.86 0 1 0 26.37 32a2.86 2.86 0 0 0-2.85-2.89z"></path>
    <circle cx="53.31" cy="21.96" r="1.21" fill="#231f20"></circle>
    <circle cx="47.88" cy="26.79" r="1.21" fill="#231f20"></circle>
    <circle cx="42.44" cy="21.96" r="1.21" fill="#231f20"></circle>
    <circle cx="47.88" cy="17.13" r="1.21" fill="#231f20"></circle>
    <path d="M53.31 24.17A2.21 2.21 0 1 1 55.52 22a2.21 2.21 0 0 1-2.21 2.17zm0-2.42a.22.22 0 0 0-.21.21c0 .23.42.23.42 0a.21.21 0 0 0-.21-.21zM47.88 29a2.21 2.21 0 1 1 2.2-2.21 2.21 2.21 0 0 1-2.2 2.21zm0-2.42a.21.21 0 0 0-.21.21c0 .23.41.23.41 0a.21.21 0 0 0-.2-.21zm-5.44-2.41A2.21 2.21 0 1 1 44.65 22a2.21 2.21 0 0 1-2.21 2.17zm0-2.42a.21.21 0 0 0-.21.21c0 .23.42.23.42 0a.22.22 0 0 0-.21-.21zm5.44-2.41a2.21 2.21 0 1 1 2.2-2.21 2.21 2.21 0 0 1-2.2 2.21zm0-2.42a.21.21 0 0 0-.21.21c0 .23.41.23.41 0a.2.2 0 0 0-.2-.21zM29 26h-2a1 1 0 0 1 0-2h2a1 1 0 0 1 0 2zm9 0h-2a1 1 0 0 1 0-2h2a1 1 0 0 1 0 2z"></path>
  </g>
</svg>
